<?xml version="1.0" standalone="no"?>
<!DOCTYPE svg PUBLIC "-//W3C//DTD SVG 20010904//EN"
 "http://www.w3.org/TR/2001/REC-SVG-20010904/DTD/svg10.dtd">
<svg version="1.0" xmlns="http://www.w3.org/2000/svg"
 width="260.000000pt" height="260.000000pt" viewBox="0 0 260.000000 260.000000"
 preserveAspectRatio="xMidYMid meet">
<metadata>
Created by potrace 1.11, written by Peter Selinger 2001-2013
</metadata>
<g transform="translate(0.000000,260.000000) scale(0.100000,-0.100000)"
fill="#000000" stroke="none">
<path d="M0 1300 l0 -1300 1300 0 1300 0 0 1300 0 1300 -1300 0 -1300 0 0
-1300z m1698 719 c-2 -16 -9 -23 -20 -21 -10 2 -18 -2 -18 -8 0 -6 -10 -8 -25
-4 -14 3 -25 2 -25 -4 0 -6 -9 -8 -20 -5 -11 3 -20 0 -20 -6 0 -5 -7 -8 -15
-5 -8 4 -15 2 -15 -4 0 -6 -9 -8 -20 -5 -11 3 -20 0 -20 -6 0 -5 -7 -8 -15 -5
-8 4 -15 1 -15 -5 0 -6 -7 -8 -15 -5 -8 4 -15 2 -15 -4 0 -6 -10 -8 -22 -4
-15 4 -19 2 -13 -7 5 -10 2 -11 -11 -7 -18 5 -19 -1 -19 -88 0 -52 4 -89 8
-83 5 7 7 -2 5 -20 -3 -19 0 -30 5 -26 6 4 7 -5 3 -21 -5 -20 -4 -26 5 -20 9
5 10 1 7 -14 -4 -14 -2 -20 5 -15 6 4 8 0 4 -10 -3 -10 -2 -17 3 -17 5 0 68
30 140 66 l131 65 19 -23 c24 -29 24 -34 0 -51 -11 -8 -17 -17 -12 -22 4 -4
-4 -4 -17 0 -17 5 -21 4 -16 -5 5 -9 2 -10 -14 -5 -12 4 -21 2 -21 -4 0 -6 -7
-8 -15 -5 -8 4 -15 1 -15 -5 0 -6 -7 -8 -17 -4 -12 5 -14 3 -8 -7 6 -10 4 -12
-9 -7 -22 9 -53 -7 -91 -48 -17 -17 -21 -20 -10 -6 l20 26 -27 -24 c-16 -14
-24 -29 -21 -39 4 -9 2 -13 -4 -9 -7 5 -9 -1 -6 -15 3 -16 2 -19 -4 -10 -6 7
-8 -11 -6 -50 2 -48 0 -57 -7 -38 -7 19 -8 12 -4 -27 7 -66 -16 -286 -27 -258
-4 12 -6 -1 -3 -30 4 -37 3 -46 -5 -35 -8 11 -9 6 -5 -20 6 -41 -33 -185 -71
-259 -24 -48 -76 -101 -98 -101 -7 0 2 9 19 19 18 11 35 24 39 30 3 6 -11 0
-32 -15 -32 -21 -46 -25 -86 -21 -29 2 -43 1 -35 -4 7 -5 8 -9 2 -9 -5 0 -19
7 -30 16 -10 8 -13 13 -6 9 23 -12 12 3 -15 21 -27 17 -28 17 -13 -1 9 -11 10
-16 2 -11 -28 17 -46 71 -45 137 2 143 135 433 302 657 l25 32 -28 166 c-15
94 -33 172 -41 180 -16 16 -39 19 -30 4 3 -6 -1 -7 -9 -4 -9 3 -16 1 -16 -5 0
-6 -7 -8 -15 -5 -8 4 -15 1 -15 -5 0 -6 -7 -8 -17 -4 -12 5 -14 3 -8 -7 6 -10
4 -12 -8 -7 -10 3 -17 2 -17 -3 0 -5 -7 -7 -15 -4 -8 4 -15 1 -15 -5 0 -6 -7
-8 -17 -4 -11 5 -14 3 -8 -6 6 -10 2 -11 -15 -6 -15 5 -20 4 -16 -4 5 -7 1 -9
-8 -5 -9 3 -16 1 -16 -5 0 -6 -7 -8 -15 -5 -8 4 -15 1 -15 -5 0 -6 -7 -8 -17
-4 -11 4 -14 3 -9 -5 5 -8 2 -10 -8 -6 -9 3 -16 1 -16 -5 0 -6 -7 -8 -15 -5
-8 4 -15 1 -15 -5 0 -6 -7 -8 -17 -4 -11 4 -14 3 -9 -5 5 -8 2 -10 -8 -6 -9 3
-16 2 -16 -3 0 -13 -37 -10 -51 4 -15 15 -7 56 11 59 8 1 184 60 390 129 348
118 473 151 493 134 5 -4 7 -17 5 -30z m-525 -1376 c-7 -2 -21 -2 -30 0 -10 3
-4 5 12 5 17 0 24 -2 18 -5z"/>
<path d="M1682 2025 c0 -16 2 -22 5 -12 2 9 2 23 0 30 -3 6 -5 -1 -5 -18z"/>
<path d="M1363 1845 c0 -22 2 -30 4 -17 2 12 2 30 0 40 -3 9 -5 -1 -4 -23z"/>
<path d="M1281 1364 c-22 -25 -38 -51 -35 -58 2 -6 -3 -20 -12 -31 -8 -11 -12
-14 -8 -6 4 9 3 12 -4 7 -6 -4 -8 -14 -5 -23 4 -11 3 -14 -5 -9 -8 5 -10 1 -5
-10 4 -12 3 -15 -5 -10 -8 5 -10 1 -5 -10 4 -12 3 -15 -5 -10 -8 5 -10 1 -5
-10 5 -13 3 -15 -7 -9 -9 5 -11 4 -6 -4 9 -14 -2 -53 -14 -46 -4 3 -6 -5 -2
-17 3 -13 1 -19 -5 -15 -7 5 -9 -1 -5 -15 3 -13 1 -19 -5 -15 -6 4 -8 -4 -6
-21 4 -21 2 -24 -6 -12 -8 11 -10 7 -5 -20 4 -25 3 -31 -4 -21 -8 11 -9 2 -6
-30 5 -35 3 -41 -6 -29 -10 13 -11 12 -6 -3 3 -10 6 -55 6 -100 0 -91 8 -112
37 -103 35 11 82 109 135 281 26 85 31 122 37 248 3 81 5 147 4 147 -1 0 -19
-21 -42 -46z m3 -19 c-14 -19 -29 -35 -31 -35 -5 0 7 18 36 53 26 31 23 18 -5
-18z"/>
<path d="M1392 1265 c0 -16 2 -22 5 -12 2 9 2 23 0 30 -3 6 -5 -1 -5 -18z"/>
<path d="M1382 1170 c0 -14 2 -19 5 -12 2 6 2 18 0 25 -3 6 -5 1 -5 -13z"/>
<path d="M1351 974 c0 -11 3 -14 6 -6 3 7 2 16 -1 19 -3 4 -6 -2 -5 -13z"/>
</g>
</svg>
